<svg width="90" height="90" viewBox="0 0 90 90" fill="none" xmlns="http://www.w3.org/2000/svg">
<path d="M45 33.2839C38.5488 33.2839 33.2842 38.5485 33.2842 44.9997C33.2842 51.4508 38.5488 56.7155 45 56.7155C51.4512 56.7155 56.7158 51.4508 56.7158 44.9997C56.7158 38.5485 51.4512 33.2839 45 33.2839ZM80.1387 44.9997C80.1387 40.1481 80.1826 35.3405 79.9101 30.4977C79.6377 24.8727 78.3545 19.8805 74.2412 15.7673C70.1191 11.6452 65.1357 10.3708 59.5107 10.0983C54.6592 9.82586 49.8515 9.8698 45.0088 9.8698C40.1572 9.8698 35.3496 9.82586 30.5068 10.0983C24.8818 10.3708 19.8896 11.654 15.7764 15.7673C11.6543 19.8893 10.3799 24.8727 10.1074 30.4977C9.83495 35.3493 9.8789 40.1569 9.8789 44.9997C9.8789 49.8424 9.83495 54.6588 10.1074 59.5016C10.3799 65.1266 11.6631 70.1188 15.7764 74.2321C19.8984 78.3541 24.8818 79.6286 30.5068 79.901C35.3584 80.1735 40.166 80.1295 45.0088 80.1295C49.8603 80.1295 54.668 80.1735 59.5107 79.901C65.1357 79.6286 70.1279 78.3454 74.2412 74.2321C78.3633 70.11 79.6377 65.1266 79.9101 59.5016C80.1914 54.6588 80.1387 49.8512 80.1387 44.9997ZM45 63.026C35.0244 63.026 26.9736 54.9753 26.9736 44.9997C26.9736 35.0241 35.0244 26.9733 45 26.9733C54.9756 26.9733 63.0264 35.0241 63.0264 44.9997C63.0264 54.9753 54.9756 63.026 45 63.026ZM63.7646 30.445C61.4355 30.445 59.5547 28.5641 59.5547 26.235C59.5547 23.9059 61.4355 22.0251 63.7646 22.0251C66.0937 22.0251 67.9746 23.9059 67.9746 26.235C67.9753 26.7881 67.8669 27.3358 67.6555 27.8469C67.4442 28.358 67.1341 28.8224 66.7431 29.2135C66.352 29.6045 65.8876 29.9146 65.3765 30.1259C64.8655 30.3373 64.3177 30.4457 63.7646 30.445Z" fill="black"/>
</svg>
