<svg width="40" height="30" viewBox="0 0 68 68" fill="none" xmlns="http://www.w3.org/2000/svg">
<path fill-rule="evenodd" clip-rule="evenodd" d="M25.43 23.897H37.81V30.0637C39.5933 26.517 44.1667 23.3303 51.0367 23.3303C64.2067 23.3303 67.3333 30.3903 67.3333 43.3437V67.3337H54V46.2937C54 38.917 52.2167 34.757 47.6767 34.757C41.38 34.757 38.7633 39.2403 38.7633 46.2903V67.3337H25.43V23.897ZM2.56666 66.767H15.9V23.3303H2.56666V66.767ZM17.81 9.16699C17.8105 10.2846 17.5888 11.3911 17.1579 12.4223C16.7271 13.4535 16.0955 14.3887 15.3 15.1737C13.688 16.7757 11.506 17.6725 9.23332 17.667C6.96462 17.6655 4.78769 16.771 3.17332 15.177C2.38069 14.3894 1.75128 13.4531 1.32114 12.4218C0.890995 11.3905 0.668587 10.2844 0.666656 9.16699C0.666656 6.91033 1.56666 4.75033 3.17666 3.15699C4.78961 1.56085 6.96746 0.665995 9.23666 0.666993C11.51 0.666993 13.69 1.56366 15.3 3.15699C16.9067 4.75033 17.81 6.91033 17.81 9.16699Z" fill="black"/>
</svg>
