<svg width="40" height="40" viewBox="0 0 76 62" fill="none" xmlns="http://www.w3.org/2000/svg">
<path d="M75.81 7.4566C73.0266 8.68993 70.0367 9.52326 66.8933 9.89993C70.1367 7.95924 72.5631 4.90482 73.72 1.3066C70.6728 3.11656 67.3378 4.39058 63.86 5.07326C61.5213 2.57615 58.4235 0.921018 55.0477 0.364844C51.672 -0.191329 48.207 0.382569 45.1908 1.99744C42.1746 3.61231 39.7759 6.1778 38.3672 9.29561C36.9584 12.4134 36.6184 15.9091 37.4 19.2399C31.2256 18.9299 25.1854 17.3251 19.6714 14.5296C14.1574 11.7341 9.29279 7.81047 5.39332 3.01326C4.05999 5.31326 3.29332 7.97993 3.29332 10.8199C3.29183 13.3766 3.92143 15.8941 5.12625 18.149C6.33107 20.404 8.07386 22.3267 10.2 23.7466C7.73424 23.6681 5.3229 23.0019 3.16666 21.8033V22.0033C3.16641 25.5891 4.40676 29.0645 6.67726 31.8399C8.94777 34.6153 12.1086 36.5197 15.6233 37.2299C13.3359 37.849 10.9378 37.9402 8.60999 37.4966C9.60165 40.582 11.5333 43.28 14.1345 45.213C16.7358 47.146 19.8764 48.2172 23.1167 48.2766C17.6161 52.5946 10.8229 54.9369 3.82999 54.9266C2.59126 54.9269 1.35358 54.8546 0.123322 54.7099C7.22157 59.2738 15.4845 61.696 23.9233 61.6866C52.49 61.6866 68.1067 38.0266 68.1067 17.5066C68.1067 16.8399 68.09 16.1666 68.06 15.4999C71.0976 13.3032 73.7197 10.5829 75.8033 7.4666L75.81 7.4566Z" fill="black"/>
</svg>
